HIERARCHY
ROOT Pelvis
{
	OFFSET 0.000000 0.000000 0.000000
	CHANNELS 6 Xposition Yposition Zposition Xrotation Yrotation Zrotation
	JOINT LeftUpLeg_virtual
	{
		OFFSET 0.000000 0.000000 0.000000
		CHANNELS 3 Xrotation Yrotation Zrotation
		JOINT LeftUpLeg
		{
			OFFSET 18.735201 -5.666702 -4.541200
			CHANNELS 3 Xrotation Yrotation Zrotation
			JOINT LeftLeg
			{
				OFFSET -0.021200 -31.938179 0.493100
				CHANNELS 3 Xrotation Yrotation Zrotation
				JOINT LeftFoot
				{
					OFFSET 0.021200 -31.938179 -4.336299
					CHANNELS 3 Xrotation Yrotation Zrotation
					JOINT LeftToeBase
					{
						OFFSET 0.943001 -26.722000 15.023500
						CHANNELS 3 Xrotation Yrotation Zrotation
						End Site
						{
							OFFSET 0 0 0
						}
					}
				}
			}
		}
	}
	JOINT RightUpLeg_virtual
	{
		OFFSET 0.000000 0.000000 0.000000
		CHANNELS 3 Xrotation Yrotation Zrotation
		JOINT RightUpLeg
		{
			OFFSET -18.735201 -5.666702 -4.541200
			CHANNELS 3 Xrotation Yrotation Zrotation
			JOINT RightLeg
			{
				OFFSET 0.018946 -31.938133 0.493100
				CHANNELS 3 Xrotation Yrotation Zrotation
				JOINT RightFoot
				{
					OFFSET -0.018946 -31.938126 -4.336299
					CHANNELS 3 Xrotation Yrotation Zrotation
					JOINT RightToeBase
					{
						OFFSET -0.943001 -26.722004 15.023500
						CHANNELS 3 Xrotation Yrotation Zrotation
						End Site
						{
							OFFSET 0 0 0
						}
					}
				}
			}
		}
	}
	JOINT Hips_virtual
	{
		OFFSET 0.000000 0.000000 0.000000
		CHANNELS 3 Xrotation Yrotation Zrotation
		JOINT Hips
		{
			OFFSET -0.000000 -0.000000 -0.000000
			CHANNELS 3 Xrotation Yrotation Zrotation
			JOINT Spine
			{
				OFFSET 0.000000 10.199997 -0.299500
				CHANNELS 3 Xrotation Yrotation Zrotation
				JOINT Spine1
				{
					OFFSET 0.000000 11.900002 -1.516600
					CHANNELS 3 Xrotation Yrotation Zrotation
					JOINT Spine2
					{
						OFFSET 0.000000 13.600006 -2.842500
						CHANNELS 3 Xrotation Yrotation Zrotation
						JOINT Neck_virtual
						{
							OFFSET 0.000000 0.000000 0.000000
							CHANNELS 3 Xrotation Yrotation Zrotation
							JOINT Neck
							{
								OFFSET 0.000000 9.624100 -2.890100
								CHANNELS 3 Xrotation Yrotation Zrotation
								JOINT Head
								{
									OFFSET 0.000000 14.068802 -1.351900
									CHANNELS 3 Xrotation Yrotation Zrotation
									End Site
									{
										OFFSET 0 0 0
									}
								}
							}
						}
						JOINT LeftShoulder_virtual
						{
							OFFSET 0.000000 0.000000 0.000000
							CHANNELS 3 Xrotation Yrotation Zrotation
							JOINT LeftShoulder
							{
								OFFSET 15.263000 10.923401 -0.547700
								CHANNELS 3 Xrotation Yrotation Zrotation
								JOINT LeftArm
								{
									OFFSET 25.438599 -2.830597 -13.032500
									CHANNELS 3 Xrotation Yrotation Zrotation
									JOINT LeftForeArm
									{
										OFFSET 29.960503 0.000000 0.000000
										CHANNELS 3 Xrotation Yrotation Zrotation
										JOINT LeftHand
										{
											OFFSET 27.849251 0.000000 0.000000
											CHANNELS 3 Xrotation Yrotation Zrotation
											End Site
											{
												OFFSET 0 0 0
											}
										}
									}
								}
							}
						}
						JOINT RightShoulder_virtual
						{
							OFFSET 0.000000 0.000000 0.000000
							CHANNELS 3 Xrotation Yrotation Zrotation
							JOINT RightShoulder
							{
								OFFSET -15.263000 10.923401 -0.547700
								CHANNELS 3 Xrotation Yrotation Zrotation
								JOINT RightArm
								{
									OFFSET -25.438599 -2.830597 -13.032500
									CHANNELS 3 Xrotation Yrotation Zrotation
									JOINT RightForeArm
									{
										OFFSET -29.960503 0.000000 0.000000
										CHANNELS 3 Xrotation Yrotation Zrotation
										JOINT RightHand
										{
											OFFSET -27.849251 0.000000 0.000000
											CHANNELS 3 Xrotation Yrotation Zrotation
											End Site
											{
												OFFSET 0 0 0
											}
										}
									}
								}
							}
						}
					}
				}
			}
		}
	}
}
MOTION
Frames: 11
Frame Time: 0.03333333
10.980361 93.871132 15.847415 0.000000 0.000000 0.000000 18.661914 -1.896182 -5.252031 -14.827137 14.164774 9.338960 23.456627 -2.792483 0.399663 -23.530700 -2.128631 -6.206158 0.000000 0.000000 0.000000 -4.298404 12.102967 3.657509 -36.391733 -0.916426 -10.964646 43.359086 1.222963 -1.525561 -7.009786 -0.944466 9.484868 0.000000 0.000000 0.000000 0.536291 -0.096376 0.120146 1.439091 14.577625 -6.218693 10.367514 -2.588974 2.165942 3.456762 -1.516334 1.893989 0.000000 0.000000 0.000000 1.392744 -1.252020 2.215320 -0.908842 -0.881691 0.783070 0.000000 0.000000 0.000000 0.825781 -0.729645 1.962707 -0.490754 -6.808458 -3.828939 3.263310 -3.579399 -65.345929 3.405311 -35.155612 -10.732795 0.000000 0.000000 0.000000 2.084474 -1.983556 0.684334 0.631167 0.774479 6.482769 9.839699 4.829237 60.015677 5.873687 35.175389 6.104558 0.000000 0.000000 0.000000 
10.934417 93.769089 16.680855 0.000000 0.000000 0.000000 19.018990 -1.972351 -5.211996 -14.247046 14.187891 9.282127 23.003155 -2.755526 0.331755 -23.890154 -2.036604 -6.274673 0.000000 0.000000 0.000000 -4.222952 11.840322 3.779451 -36.277327 -1.040643 -10.836305 41.130477 1.572579 -1.568768 -8.882249 -0.735901 9.567108 0.000000 0.000000 0.000000 0.574372 -0.110127 0.100892 1.635558 14.708619 -6.472316 10.311817 -2.713786 2.229693 3.434998 -1.584171 1.929278 0.000000 0.000000 0.000000 1.375612 -1.290496 2.270122 -0.906173 -0.883798 0.803228 0.000000 0.000000 0.000000 0.869608 -0.765637 2.014699 -0.458868 -6.813237 -3.655191 3.103032 -3.684715 -65.404204 3.382052 -35.227018 -10.840542 0.000000 0.000000 0.000000 2.162978 -2.077769 0.719006 0.738482 0.520317 6.493879 9.889761 4.707967 60.287061 5.807718 35.158129 6.283074 0.000000 0.000000 0.000000 
10.859378 93.640030 17.571972 0.000000 0.000000 0.000000 19.378073 -2.083515 -5.151785 -13.666379 14.199119 9.241640 22.583993 -2.726158 0.252914 -24.223973 -1.947308 -6.363899 0.000000 0.000000 0.000000 -4.125744 11.571019 3.886075 -36.138910 -1.165093 -10.723219 38.976871 1.888058 -1.645930 -10.681934 -0.537774 9.553274 0.000000 0.000000 0.000000 0.603193 -0.140271 0.082471 1.810155 14.867298 -6.737897 10.253862 -2.845481 2.297196 3.410190 -1.655280 1.967666 0.000000 0.000000 0.000000 1.348002 -1.334661 2.322254 -0.908008 -0.887438 0.821055 0.000000 0.000000 0.000000 0.910880 -0.807072 2.072703 -0.427083 -6.831966 -3.457951 2.975172 -3.801728 -65.432919 3.380473 -35.277917 -10.934237 0.000000 0.000000 0.000000 2.228618 -2.174533 0.754490 0.833930 0.260631 6.500056 9.921888 4.597571 60.544108 5.739231 35.197119 6.452778 0.000000 0.000000 0.000000 
10.754084 93.485237 18.523191 0.000000 0.000000 0.000000 19.735999 -2.227898 -5.071258 -13.089591 14.198469 9.218238 22.205906 -2.702479 0.161788 -24.526622 -1.858590 -6.474897 0.000000 0.000000 0.000000 -4.029316 11.294641 3.980062 -36.008016 -1.287029 -10.625909 36.957887 2.159021 -1.757268 -12.360940 -0.354696 9.442626 0.000000 0.000000 0.000000 0.621404 -0.184723 0.065073 1.960267 15.052274 -7.008345 10.193720 -2.984151 2.366339 3.382176 -1.729194 2.008084 0.000000 0.000000 0.000000 1.309376 -1.384823 2.369691 -0.914379 -0.893022 0.835736 0.000000 0.000000 0.000000 0.948319 -0.853645 2.133744 -0.396724 -6.864066 -3.249393 2.874771 -3.933832 -65.441634 3.396816 -35.315363 -11.018744 0.000000 0.000000 0.000000 2.279470 -2.273131 0.790661 0.915322 -0.002962 6.501854 9.930054 4.487246 60.783254 5.663655 35.278002 6.614448 0.000000 0.000000 0.000000 
10.618382 93.306175 19.534727 0.000000 0.000000 0.000000 20.089349 -2.403312 -4.970697 -12.521641 14.186105 9.212381 21.875165 -2.681222 0.057746 -24.793045 -1.767391 -6.607035 0.000000 0.000000 0.000000 -3.954007 11.014853 4.064783 -35.912411 -1.403261 -10.543370 35.128670 2.381501 -1.899586 -13.876792 -0.187600 9.245714 0.000000 0.000000 0.000000 0.628165 -0.241468 0.048919 2.084969 15.258648 -7.275465 10.131465 -3.128989 2.434341 3.350818 -1.804978 2.049044 0.000000 0.000000 0.000000 1.259022 -1.440389 2.410888 -0.925545 -0.900526 0.846826 0.000000 0.000000 0.000000 0.980454 -0.904421 2.194068 -0.369536 -6.907176 -3.044267 2.793523 -4.081703 -65.442433 3.424952 -35.346950 -11.100369 0.000000 0.000000 0.000000 2.314991 -2.372361 0.827077 0.981924 -0.267543 6.499446 9.913173 4.370819 60.998500 5.579357 35.387528 6.766897 0.000000 0.000000 0.000000 
10.453272 93.104370 20.604845 0.000000 0.000000 0.000000 20.434598 -2.607858 -4.850537 -11.967799 14.162148 9.224392 21.598323 -2.658458 -0.059274 -25.018100 -1.670338 -6.758581 0.000000 0.000000 0.000000 -3.916463 10.739623 4.144235 -35.873953 -1.510292 -10.472950 33.538585 2.556672 -2.066921 -15.192789 -0.034943 8.981189 0.000000 0.000000 0.000000 0.623085 -0.308493 0.034157 2.184856 15.479447 -7.531153 10.067151 -3.278375 2.498181 3.316005 -1.881336 2.088882 0.000000 0.000000 0.000000 1.195876 -1.499920 2.445232 -0.942097 -0.909505 0.854468 0.000000 0.000000 0.000000 1.005959 -0.958034 2.249799 -0.347326 -6.957861 -2.857287 2.722174 -4.244855 -65.447317 3.458245 -35.380896 -11.185029 0.000000 0.000000 0.000000 2.335946 -2.470689 0.863091 1.034395 -0.529380 6.492949 9.875993 4.248349 61.182902 5.488224 35.515423 6.907454 0.000000 0.000000 0.000000 
10.260681 92.881485 21.730505 0.000000 0.000000 0.000000 20.768293 -2.840293 -4.711165 -11.433201 14.126554 9.254536 21.383046 -2.630091 -0.188940 -25.195928 -1.564172 -6.927268 0.000000 0.000000 0.000000 -3.928916 10.481119 4.222977 -35.907548 -1.604418 -10.410349 32.229562 2.689206 -2.251781 -16.278559 0.106302 8.671669 0.000000 0.000000 0.000000 0.606092 -0.383602 0.020794 2.261401 15.707678 -7.768340 10.000791 -3.429950 2.555001 3.277643 -1.956697 2.125985 0.000000 0.000000 0.000000 1.118721 -1.561259 2.473061 -0.964851 -0.919147 0.859363 0.000000 0.000000 0.000000 1.023869 -1.012845 2.297513 -0.331638 -7.012139 -2.700900 2.652784 -4.422721 -65.465963 3.491108 -35.425797 -11.276817 0.000000 0.000000 0.000000 2.343944 -2.566393 0.897928 1.074297 -0.784395 6.482556 9.827800 4.125754 61.329983 5.395038 35.655418 7.032725 0.000000 0.000000 0.000000 
10.042869 92.639542 22.908278 0.000000 0.000000 0.000000 21.087302 -3.099869 -4.552865 -10.922302 14.079105 9.302947 21.238736 -2.592036 -0.330604 -25.319214 -1.445902 -7.110471 0.000000 0.000000 0.000000 -3.998884 10.254860 4.305973 -36.020785 -1.681949 -10.349871 31.234271 2.785576 -2.446628 -17.110787 0.239917 8.339462 0.000000 0.000000 0.000000 0.577243 -0.464363 0.008667 2.315813 15.937905 -7.981681 9.932287 -3.580700 2.602384 3.235619 -2.029289 2.158958 0.000000 0.000000 0.000000 1.026662 -1.621728 2.495262 -0.994579 -0.928373 0.862510 0.000000 0.000000 0.000000 1.033551 -1.067074 2.334597 -0.323628 -7.065718 -2.583925 2.579896 -4.614816 -65.504711 3.519644 -35.489858 -11.377426 0.000000 0.000000 0.000000 2.340817 -2.657670 0.930695 1.103411 -1.028471 6.468391 9.779605 4.012953 61.434963 5.306014 35.805518 7.139513 0.000000 0.000000 0.000000 
9.801637 92.381401 24.135395 0.000000 0.000000 0.000000 21.388888 -3.385672 -4.375983 -10.438438 14.019591 9.369470 21.177056 -2.540055 -0.483161 -25.378652 -1.312781 -7.304958 0.000000 0.000000 0.000000 -4.128943 10.077835 4.398384 -36.213902 -1.739687 -10.284884 30.574570 2.852511 -2.645185 -17.673893 0.369839 8.003056 0.000000 0.000000 0.000000 0.536551 -0.548416 -0.002570 2.347755 16.166609 -8.167997 9.861374 -3.727096 2.638567 3.189788 -2.097221 2.186746 0.000000 0.000000 0.000000 0.919662 -1.678416 2.512632 -1.031710 -0.935987 0.864821 0.000000 0.000000 0.000000 1.034459 -1.118890 2.359376 -0.324148 -7.114126 -2.511171 2.500486 -4.820119 -65.566326 3.541379 -35.580221 -11.486355 0.000000 0.000000 0.000000 2.328099 -2.742731 0.960365 1.123107 -1.257667 6.450222 9.741212 3.921372 61.495567 5.227151 35.967431 7.225641 0.000000 0.000000 0.000000 
9.537674 92.111221 25.410734 0.000000 0.000000 0.000000 21.670628 -3.695916 -4.181266 -9.983922 13.947993 9.453427 21.212069 -2.469548 -0.644776 -25.362670 -1.162259 -7.506381 0.000000 0.000000 0.000000 -4.316569 9.965740 4.505322 -36.479924 -1.775620 -10.208390 30.260214 2.895763 -2.843260 -17.960730 0.499582 7.674877 0.000000 0.000000 0.000000 0.483955 -0.634187 -0.013411 2.354492 16.390793 -8.326361 9.787617 -3.865320 2.662587 3.139973 -2.158585 2.208714 0.000000 0.000000 0.000000 0.798850 -1.728506 2.525237 -1.076152 -0.940860 0.866741 0.000000 0.000000 0.000000 1.025857 -1.166513 2.371043 -0.333925 -7.152855 -2.483788 2.413305 -5.036397 -65.650399 3.554617 -35.702427 -11.601434 0.000000 0.000000 0.000000 2.306749 -2.819905 0.985766 1.133977 -1.468447 6.427176 9.719269 3.861621 61.512445 5.163004 36.145600 7.290554 0.000000 0.000000 0.000000 
9.250347 91.834785 26.735500 0.000000 0.000000 0.000000 21.929972 -4.027527 -3.970310 -9.560779 13.864617 9.553345 21.360269 -2.375579 -0.812596 -25.257481 -0.992120 -7.708856 0.000000 0.000000 0.000000 -4.554303 9.930052 4.631608 -36.805451 -1.789595 -10.113644 30.287688 2.919402 -3.038872 -17.973388 0.631690 7.360755 0.000000 0.000000 0.000000 0.419502 -0.721782 -0.024416 2.331020 16.605351 -8.457706 9.710439 -3.991600 2.674384 3.086007 -2.211588 2.224701 0.000000 0.000000 0.000000 0.666465 -1.769596 2.532022 -1.127302 -0.942107 0.868025 0.000000 0.000000 0.000000 1.006676 -1.208308 2.369494 -0.353675 -7.177619 -2.500040 2.318445 -5.260005 -65.753821 3.558065 -35.859951 -11.719318 0.000000 0.000000 0.000000 2.277143 -2.887749 1.005585 1.135777 -1.657951 6.397557 9.716793 3.841839 61.489215 5.116189 36.345718 7.335487 0.000000 0.000000 0.000000 
